<?xml version="1.0"?>
<svg xmlns="http://www.w3.org/2000/svg" id="Capa_1" enable-background="new 0 0 512 512" height="512px" viewBox="0 0 512 512" width="512px" class=""><g><g><path d="m256 233.316c29.884 0 59.769-11.375 82.519-34.126 45.501-45.501 45.501-119.535 0-165.036-45.5-45.502-119.537-45.502-165.037 0-45.501 45.501-45.501 119.535 0 165.036 22.749 22.751 52.634 34.126 82.518 34.126zm-61.306-177.95c16.903-16.901 39.104-25.352 61.306-25.352s44.403 8.451 61.306 25.353c33.804 33.804 33.804 88.807 0 122.61-33.805 33.803-88.807 33.803-122.611 0-33.804-33.804-33.804-88.807-.001-122.611z" data-original="#000000" class="active-path" data-old_color="#000000" fill="#398C80"/><path d="m295.725 101.671h-24.725v-52.121h-30v82.121h54.725z" data-original="#000000" class="active-path" data-old_color="#000000" fill="#398C80"/><path d="m464.732 80.725c-26.063 0-47.268 21.204-47.268 47.269v122.613l-9.155 9.469c-2.4-5.552-5.881-10.734-10.436-15.217-18.985-18.682-49.705-18.513-68.485.382l-73.388 73.846-73.389-73.847c-18.777-18.894-49.499-19.066-68.485-.382-4.555 4.482-8.034 9.665-10.436 15.217l-9.155-9.469v-122.613c0-26.064-21.204-47.269-47.268-47.269s-47.267 21.205-47.267 47.269v149.585c0 15.414 4.172 30.56 12.065 43.799l89.128 131.029-10.203 59.567h330.02l-10.203-59.566 89.128-131.029c7.893-13.24 12.065-28.386 12.065-43.8v-149.585c0-26.064-21.204-47.268-47.268-47.268zm-223.732 401.248h-114.434l6.24-36.434-95.188-139.888c-4.985-8.509-7.618-18.206-7.618-28.073v-149.585c0-9.521 7.746-17.269 17.268-17.269s17.268 7.747 17.268 17.269v134.744l102.364 105.872 21.566-20.854-54.43-56.294c-6.216-7.321-5.805-18.395 1.132-25.22 7.253-7.138 18.988-7.071 26.163.146l79.669 80.165zm241-204.395c0 9.866-2.633 19.563-7.618 28.072l-95.188 139.889 6.24 36.434h-114.434v-135.421l79.668-80.165c7.174-7.218 18.91-7.282 26.163-.146 6.937 6.825 7.348 17.898 1.132 25.22l-54.43 56.294 21.566 20.854 102.365-105.871v-134.745c0-9.521 7.746-17.269 17.268-17.269s17.268 7.748 17.268 17.269z" data-original="#000000" class="active-path" data-old_color="#000000" fill="#398C80"/></g></g> </svg>
